<svg enable-background="new 0 0 780 500" height="500" viewBox="0 0 780 500" width="780" xmlns="http://www.w3.org/2000/svg"><path d="m0 42.426c0-23.432 18.571-42.426 41.458-42.426h694.58c22.897 0 41.459 18.99 41.459 42.426v414.65c0 23.432-18.571 42.426-41.459 42.426h-694.58c-22.896 0-41.458-18.989-41.458-42.426v-414.65zm606.38 208.86c0-105.43-86.022-178.31-180.27-178.27h-81.11c-95.376-.035-173.88 72.862-173.88 178.27 0 96.432 78.504 175.66 173.88 175.2h81.111c94.247.462 180.27-78.789 180.27-175.2zm-261-163.66c-87.153.028-157.77 72.441-157.8 161.81.021 89.356 70.642 161.76 157.8 161.79 87.173-.027 157.81-72.434 157.82-161.79-.014-89.371-70.648-161.78-157.82-161.81zm-100.02 161.81c.082-43.672 26.69-80.913 64.211-95.711v191.4c-37.52-14.791-64.13-52.01-64.211-95.689zm135.82 95.733v-191.45c37.534 14.763 64.185 52.024 64.252 95.718-.067 43.707-26.718 80.941-64.252 95.732v.002z" fill="#393939"/></svg>